<?xml version="1.0" standalone="no"?><!DOCTYPE svg PUBLIC "-//W3C//DTD SVG 1.1//EN" "http://www.w3.org/Graphics/SVG/1.1/DTD/svg11.dtd"><svg t="1618405121200" class="icon" viewBox="0 0 1910 1024" version="1.1" xmlns="http://www.w3.org/2000/svg" p-id="7326" xmlns:xlink="http://www.w3.org/1999/xlink" width="373.046875" height="200"><defs><style type="text/css"></style></defs><path d="M365.50289 292.99422C164.254335 292.99422 0 455.768786 0 658.49711s162.774566 365.50289 365.50289 365.50289c201.248555 0 365.50289-162.774566 365.50289-365.50289s-162.774566-365.50289-365.50289-365.50289z m0 640.739884C213.086705 933.734104 88.786127 809.433526 88.786127 657.017341s124.300578-275.236994 276.716763-275.236994 276.716763 124.300578 276.716763 276.716763S517.919075 933.734104 365.50289 933.734104zM1544.878613 292.99422c-201.248555 0-365.50289 162.774566-365.50289 365.50289s162.774566 365.50289 365.50289 365.50289c201.248555 0 365.50289-162.774566 365.50289-365.50289S1746.127168 292.99422 1544.878613 292.99422z m0 640.739884c-152.416185 0-276.716763-124.300578-276.716763-276.716763s124.300578-275.236994 276.716763-275.236994 276.716763 124.300578 276.716763 276.716763-124.300578 275.236994-276.716763 275.236994z" fill="#2c2c2c" p-id="7327"></path><path d="M1174.936416 272.277457L921.895954 609.66474c-4.439306 5.919075-16.277457 13.317919-22.196532 14.797688H460.208092l253.040463-337.387283c4.439306-5.919075 16.277457-13.317919 22.196532-14.797688h439.491329m103.583815-75.468208H733.965318c-25.156069 0-62.150289 20.716763-79.907515 45.872832l-310.751445 412.855491c-19.236994 25.156069-13.317919 45.872832 13.317919 45.872833h544.554914c25.156069 0 62.150289-20.716763 79.907514-45.872833l309.271677-412.855491c19.236994-25.156069 13.317919-45.872832-11.838151-45.872832zM833.109827 196.809249H480.924855c-29.595376 0-53.271676-23.676301-53.271676-53.271677s23.676301-53.271676 53.271676-53.271676h352.184972M1118.705202 106.543353h-207.16763c-29.595376 0-53.271676-23.676301-53.271676-53.271677S881.942197 0 911.537572 0h208.647399c29.595376 0 53.271676 23.676301 53.271676 53.271676-1.479769 29.595376-25.156069 53.271676-54.751445 53.271677z" fill="#2c2c2c" p-id="7328"></path><path d="M1513.803468 673.294798L1083.190751 90.265896c-17.757225-23.676301-11.83815-56.231214 11.838151-73.988439 23.676301-17.757225 56.231214-11.83815 73.988439 11.83815l430.612717 583.028902c17.757225 23.676301 11.83815 56.231214-11.83815 73.988439-23.676301 16.277457-57.710983 11.83815-73.98844-11.83815z" fill="#2c2c2c" p-id="7329"></path></svg>